<svg xmlns="http://www.w3.org/2000/svg" viewBox="0 0 100 100" width="100" height="100">
    <defs>
        <linearGradient id="deepBlue" x1="0" y1="0" x2="1" y2="1">
            <stop offset="0%" stop-color="#0B3B5B"/>
            <stop offset="100%" stop-color="#082E4B"/>
        </linearGradient>
    </defs>

    <!-- 核心符号 -->
    <path d="M50 15
           C30 15, 15 30, 15 50
           C15 70, 30 85, 50 85
           C70 85, 85 70, 85 50
           C85 30, 70 15, 50 15
           Z"
          fill="none"
          stroke="url(#deepBlue)"
          stroke-width="3"
          stroke-linecap="round"/>

    <!-- 无限心形 -->
    <path d="M50 30
           Q35 25 30 35
           C25 45 35 55 50 65
           C65 55 75 45 70 35
           Q65 25 50 30
           Z"
          fill="#0B3B5B"
          fill-rule="evenodd"/>

    <!-- 动态流线 -->
    <path d="M30 50
           C33 40 45 35 50 35
           C55 35 67 40 70 50
           C67 60 55 65 50 65
           C45 65 33 60 30 50"
          fill="none"
          stroke="#5C8CA7"
          stroke-width="1.5"
          stroke-dasharray="3 2"/>
</svg>